<svg data-v-0dd9719b="" version="1.0" xmlns="http://www.w3.org/2000/svg" xmlns:xlink="http://www.w3.org/1999/xlink" width="100%" height="100%" viewBox="0 0 340.000000 250.000000" preserveAspectRatio="xMidYMid meet" color-interpolation-filters="sRGB" style="margin: auto;"> <rect data-v-0dd9719b="" x="0" y="0" width="100%" height="100%" fill="#fff" fill-opacity="1" class="background"></rect> <rect data-v-0dd9719b="" x="0" y="0" width="100%" height="100%" fill="url(#watermark)" fill-opacity="1" class="watermarklayer"></rect> <g data-v-0dd9719b="" fill="#333" class="icon-text-wrapper icon-svg-group iconsvg" transform="translate(47.730003356933594,94.99069595336914)"><g class="iconsvg-imagesvg" transform="translate(0,0)"><g><rect fill="#333" fill-opacity="0" stroke-width="2" x="0" y="0" width="60" height="60.01860576778802" class="image-rect"></rect> <svg x="0" y="0" width="60" height="60.01860576778802" filtersec="colorsb395386583" class="image-svg-svg primary" style="overflow: visible;"><svg xmlns="http://www.w3.org/2000/svg" viewBox="-0.0004231940256431699 -0.00042338765342719853 96.32041931152344 96.35041809082031"><path d="M46.51 80.55a32.43 32.43 0 0 1 0-64.78V0h-.38a1.79 1.79 0 0 0-1.77 1.53l-.26 1.82a4.71 4.71 0 0 1-3.75 3.94 41.1 41.1 0 0 0-5.86 1.57 4.7 4.7 0 0 1-5.22-1.54l-1.13-1.44a1.78 1.78 0 0 0-2.3-.44l-3.52 2a1.78 1.78 0 0 0-.76 2.21l.68 1.71A4.67 4.67 0 0 1 21 16.67 43.43 43.43 0 0 0 16.67 21a4.67 4.67 0 0 1-5.28 1.28l-1.71-.68a1.78 1.78 0 0 0-2.21.76l-2 3.52a1.78 1.78 0 0 0 .44 2.3l1.44 1.13a4.7 4.7 0 0 1 1.54 5.22 41.1 41.1 0 0 0-1.57 5.86 4.71 4.71 0 0 1-3.97 3.71l-1.82.26A1.79 1.79 0 0 0 0 46.13v4.06A1.79 1.79 0 0 0 1.53 52l1.82.26A4.69 4.69 0 0 1 7.29 56a41.45 41.45 0 0 0 1.57 5.86 4.7 4.7 0 0 1-1.54 5.22l-1.44 1.1a1.78 1.78 0 0 0-.44 2.3l2 3.51a1.77 1.77 0 0 0 2.21.77l1.71-.68a4.68 4.68 0 0 1 5.28 1.27 42.48 42.48 0 0 0 4.36 4.3 4.67 4.67 0 0 1 1.28 5.28l-.68 1.71a1.78 1.78 0 0 0 .76 2.21l3.52 2a1.78 1.78 0 0 0 2.3-.44L29.27 89a4.7 4.7 0 0 1 5.22-1.54A41.1 41.1 0 0 0 40.35 89a4.69 4.69 0 0 1 3.75 4l.26 1.81a1.8 1.8 0 0 0 1.77 1.54h.38z" fill="#0087ff"></path><path d="M94.78 44.36L93 44.1a4.69 4.69 0 0 1-4-3.75 41.1 41.1 0 0 0-1.57-5.86A4.69 4.69 0 0 1 89 29.27l1.44-1.13a1.79 1.79 0 0 0 .44-2.3l-2-3.52a1.78 1.78 0 0 0-2.21-.76l-1.71.68A4.68 4.68 0 0 1 79.65 21a42.48 42.48 0 0 0-4.3-4.29 4.68 4.68 0 0 1-1.27-5.28l.68-1.71A1.78 1.78 0 0 0 74 7.47l-3.52-2a1.78 1.78 0 0 0-2.3.44l-1.13 1.41a4.7 4.7 0 0 1-5.22 1.54A41.45 41.45 0 0 0 56 7.29a4.69 4.69 0 0 1-3.75-3.94L52 1.53A1.79 1.79 0 0 0 50.19 0h-.38v15.77a32.43 32.43 0 0 1 0 64.78v15.77h.38A1.8 1.8 0 0 0 52 94.78l.22-1.78A4.66 4.66 0 0 1 56 89a41.45 41.45 0 0 0 5.86-1.57A4.69 4.69 0 0 1 67.05 89l1.13 1.44a1.79 1.79 0 0 0 2.3.44l3.52-2a1.78 1.78 0 0 0 .76-2.21l-.68-1.71a4.68 4.68 0 0 1 1.27-5.28 41.56 41.56 0 0 0 4.3-4.3 4.68 4.68 0 0 1 5.28-1.27l1.71.68a1.78 1.78 0 0 0 2.21-.79l2-3.51a1.78 1.78 0 0 0-.44-2.3L89 67.05a4.7 4.7 0 0 1-1.54-5.22A41.45 41.45 0 0 0 89 56a4.66 4.66 0 0 1 4-3.78l1.78-.22a1.8 1.8 0 0 0 1.54-1.77v-4.1a1.8 1.8 0 0 0-1.54-1.77z" fill="#ff006f"></path><path d="M49.81 21.19v13.93h8a3.06 3.06 0 1 1 0 1.83h-8v10.3h12.68a3.05 3.05 0 1 1 0 1.82H49.81v10.3h8a3.06 3.06 0 1 1 0 1.82h-8v13.94a27 27 0 0 0 0-53.94zM21.13 48.16a27 27 0 0 0 25.38 27V21.19a27 27 0 0 0-25.38 26.97zm22.18-13h-4.85a3.06 3.06 0 1 0 0 1.83h4.85v10.3h-9.49a3.05 3.05 0 1 0 0 1.82h9.49v10.3h-4.85a3.06 3.06 0 1 0 0 1.83h4.85v10.24a23.82 23.82 0 0 1 0-46.64z" fill="#2a3294"></path></svg></svg> <!----></g></g> <g transform="translate(67,1.2430534362792969)"><g data-gra="path-name" fill-rule="" class="tp-name iconsvg-namesvg" transform="translate(0,0)"><g transform="scale(1)"><g><path d="M15.91-15.47L28.83-15.47 28.83-26.54 15.91-26.54 15.91-15.47ZM15.91-14.24L15.91-1.76 28.83-1.76 28.83-14.24 15.91-14.24ZM34.23-27.86L36.08-27.86 38.8-31.73Q41.79-29.09 43.55-27.29L43.55-27.29Q43.33-26.54 42.32-26.54L42.32-26.54 34.23-26.54 34.23 1.58Q34.23 2.02 32.76 2.75 31.29 3.47 29.88 3.47L29.88 3.47 28.83 3.47 28.83-0.48 15.91-0.48 15.91 2.11Q15.91 2.59 14.46 3.27 13.01 3.96 11.6 3.96L11.6 3.96 10.63 3.96 10.63-26.54 1.93-26.54 1.58-27.86 10.63-27.86 10.63-37.92 17.53-37.22Q17.31-36.17 15.91-35.95L15.91-35.95 15.91-27.86 28.83-27.86 28.83-37.92 35.9-37.22Q35.77-36.17 34.23-35.95L34.23-35.95 34.23-27.86ZM56.03-15.21L56.03-15.21 56.03-9.18Q55.94 0.57 47.11 4.22L47.11 4.22 46.71 3.82Q50.98-0.35 50.98-9.23L50.98-9.23 50.98-17.01 57.57-16.39Q57.35-15.38 56.03-15.21ZM70.27-14.11L70.27-14.11 70.84-14.28Q76.38-10.94 77.3-6.72L77.3-6.72Q77.92-4.04 76.46-2.68L76.46-2.68Q75.15-1.41 73.48-2.68L73.48-2.68Q73.21-2.86 72.99-3.12L72.99-3.12Q72.95-7.78 70.27-14.11ZM79.58 4.09L78.71 4.09 78.71-16.96 85.56-16.35Q85.43-15.29 83.89-15.07L83.89-15.07 83.89 2.72Q83.89 2.94 83.25 3.25 82.62 3.56 81.56 3.82 80.51 4.09 79.58 4.09L79.58 4.09ZM69.52-20.61L78.05-20.61 78.05-25.75 69.52-25.75 69.52-20.61ZM78.05-31.99L69.52-31.99 69.52-26.98 78.05-26.98 78.05-31.99ZM83.14-26.98L83.32-26.98 85.34-29.79Q87.54-27.82 88.81-26.46L88.81-26.46Q88.68-25.75 87.71-25.75L87.71-25.75 83.14-25.75 83.14-19.03Q83.1-18.72 81.58-18.22 80.07-17.71 78.88-17.71L78.88-17.71 78.05-17.71 78.05-19.34 69.52-19.34 69.52 2.2Q69.52 2.64 68.16 3.32 66.8 4 65.43 4L65.43 4 64.47 4 64.47-12.7Q64.16-12.52 63.59-12.52L63.59-12.52Q61.13-4.39 56.56-0.7L56.56-0.7 55.94-1.14Q58.71-6.86 59.33-14.81L59.33-14.81 64.47-13.67 64.47-19.34 51.42-19.34 51.02-20.61 64.47-20.61 64.47-25.75 47.15-25.75 46.8-26.98 64.47-26.98 64.47-31.99 51.64-31.99 51.2-33.27 64.47-33.27 64.47-38.36 71.15-37.71Q71.06-36.61 69.52-36.39L69.52-36.39 69.52-33.27 77.56-33.27 79.94-35.77 84.77-32.12Q84.38-31.55 83.14-31.29L83.14-31.29 83.14-26.98ZM105.03 3.82L105.03 3.82Q105.03 1.8 104.22 1.05 103.4 0.31 101.29-0.09L101.29-0.09 101.34-0.7Q104.41-0.48 105.51-0.48L105.51-0.48Q106.35-0.48 106.7-0.79L106.7-0.79Q107.67-1.58 108.11-6.59L108.11-6.59 103.97-6.59Q103.62-5.01 102.94-3.69 102.26-2.37 100.94-0.97 99.62 0.44 97.36 1.71 95.1 2.99 91.93 4.04L91.93 4.04 91.49 3.47Q95.27 1.32 97.01-1.16 98.75-3.65 99.27-6.59L99.27-6.59 93.78-6.59 93.38-7.87 99.45-7.87Q99.54-8.48 99.62-11.38L99.62-11.38 105.91-10.9Q105.78-9.93 104.55-9.71L104.55-9.71Q104.55-9.58 104.46-8.9 104.37-8.22 104.28-7.87L104.28-7.87 107.71-7.87 110.04-10.06 114.3-6.68Q113.82-6.06 112.59-5.89L112.59-5.89Q112.28-1.98 111.64-0.02 111.01 1.93 109.73 2.77L109.73 2.77Q108.06 3.82 105.03 3.82ZM119.36-7.21L119.36-1.01 125.29-1.01 125.29-7.21 119.36-7.21ZM119.58-8.53L124.85-8.53 127.09-10.85 131.79-7.38Q131.35-6.86 130.21-6.59L130.21-6.59 130.21 1.23Q130.17 1.49 128.72 1.96 127.27 2.42 126.12 2.42L126.12 2.42 125.29 2.42 125.29 0.31 119.36 0.31 119.36 1.8Q119.36 2.02 118.76 2.35 118.17 2.68 117.16 2.97 116.15 3.25 115.22 3.25L115.22 3.25 114.57 3.25 114.57-10.5 119.58-8.53ZM120.45-18.37L104.72-18.37 104.72-17.89Q104.72-17.71 104.55-17.58L104.55-17.58Q109.29-17.67 109.95-15.34L109.95-15.34Q110.26-14.02 108.9-13.05L108.9-13.05 115.44-13.05Q116.19-15.51 116.54-17.62L116.54-17.62 120.45-16.96 120.45-18.37ZM120.45-19.6L120.45-23.6 104.72-23.6 104.72-19.6 120.45-19.6ZM117.51-13.05L125.46-13.05 128.32-16.66Q131.62-14.24 133.59-12.48L133.59-12.48Q133.46-11.73 132.41-11.73L132.41-11.73 91.98-11.73 91.63-13.05 105.64-13.05Q105.12-13.49 104.85-14.41L104.85-14.41Q104.94-15.03 104.63-15.86 104.33-16.7 103.75-17.14L103.75-17.14Q102-16.35 100.11-16.35L100.11-16.35 99.4-16.35 99.4-27.03 104.99-24.87 120.06-24.87 122.34-27.42 96.2-27.42 95.84-28.7 109.2-28.7 109.2-32.43 92.94-32.43 92.55-33.71 109.2-33.71 109.2-38.19 116.37-37.62Q116.24-36.56 114.7-36.39L114.7-36.39 114.7-33.71 124.8-33.71 127.71-37.49Q131.04-34.98 132.98-33.18L132.98-33.18Q132.76-32.43 131.7-32.43L131.7-32.43 114.7-32.43 114.7-28.7 121.64-28.7 124.37-32.08Q127.49-29.79 129.38-28.13L129.38-28.13Q129.24-27.42 128.14-27.42L128.14-27.42 122.43-27.42 127.49-23.69Q126.96-23.07 125.77-22.81L125.77-22.81 125.77-17.89Q125.73-17.67 124.37-17.23 123-16.79 121.82-16.7L121.82-16.7 123.22-16.48Q123-15.51 121.55-15.47L121.55-15.47Q119.18-13.89 117.51-13.05L117.51-13.05ZM177.1-28.13L177.1-28.13 170.29-28.13Q167.48-16.48 160.49-9.05L160.49-9.05Q168.05-3.82 179.12-1.19L179.12-1.19 178.99-0.62Q175.08-0.09 173.76 3.96L173.76 3.96Q163.65 0.31 157.46-6.15L157.46-6.15Q149.24 0.79 136.63 3.87L136.63 3.87 136.41 3.43Q148.05-1.27 154.86-9.18L154.86-9.18Q150.29-15.12 148.1-23.33L148.1-23.33Q145.81-18.19 144.98-16.57L144.98-16.57Q145.55-15.69 144.8-14.94L144.8-14.94 140.98-19.34Q144.62-21.84 147.52-24.65L147.52-24.65 147.83-27.51 150.21-26.81 148.54-24.43Q151.04-17.23 156.97-11.82L156.97-11.82Q162.07-18.9 163.74-28.13L163.74-28.13 137.02-28.13 136.67-29.4 154.78-29.4 154.78-38.06 161.85-37.53Q161.72-36.47 160.18-36.21L160.18-36.21 160.18-29.4 169.58-29.4 172.75-33.66Q176.31-30.76 178.42-28.83L178.42-28.83Q178.24-28.13 177.1-28.13Z" transform="translate(-1.5799999237060547, 38.36000061035156)"></path></g> <!----> <!----> <!----> <!----> <!----> <!----> <!----></g></g> <g data-gra="path-slogan" fill-rule="" class="tp-slogan iconsvg-slogansvg" fill="#333" transform="translate(5,48.58000183105469)"><rect x="0" height="1" y="3.9750003814697266" width="35.97944259643555"></rect> <rect height="1" y="3.9750003814697266" width="35.97944259643555" x="131.56055068969727"></rect> <g transform="translate(38.97944259643555,0)"><g transform="scale(1)"><path d="M7.31-3.61L4.69-3.61L4.69-4.59L8.44-4.59L8.44 0L7.69 0L7.41-1.08Q6.42 0.09 4.59 0.14L4.59 0.14Q2.86 0.14 1.92-0.75L1.92-0.75Q0.52-2.06 0.56-4.36L0.56-4.36Q0.89-8.63 4.64-8.81L4.64-8.81Q7.83-8.63 8.30-6L8.30-6L7.17-6Q6.70-7.78 4.59-7.83L4.59-7.83Q1.92-7.64 1.78-4.31L1.78-4.31Q1.78-0.75 4.64-0.75L4.64-0.75Q5.67-0.75 6.42-1.31L6.42-1.31Q7.36-2.06 7.31-3.61L7.31-3.61ZM15.89 0L15.05-2.48L11.58-2.48L10.69 0L9.52 0L12.75-8.58L14.06-8.58L17.16 0L15.89 0ZM13.31-7.31L11.95-3.52L14.63-3.52L13.36-7.31L13.31-7.31ZM19.59-8.58L23.91-1.64L23.91-8.58L25.03-8.58L25.03 0L23.72 0L19.36-6.94L19.31-6.94L19.31 0L18.19 0L18.19-8.58L19.59-8.58ZM33.09-6.09L33.09-6.09L32.02-6.09Q31.92-7.73 29.86-7.83L29.86-7.83Q27.94-7.78 27.94-6.33L27.94-6.33Q27.94-5.39 28.97-5.25L28.97-5.25L31.41-4.69Q33.33-4.22 33.33-2.34L33.33-2.34Q33.28 0.05 29.95 0.14L29.95 0.14Q28.13 0.14 27.38-0.61L27.38-0.61Q26.44-1.31 26.48-2.77L26.48-2.77L27.61-2.77Q27.66-0.80 29.95-0.75L29.95-0.75Q32.20-0.80 32.25-2.20L32.25-2.20Q32.44-3.38 30.38-3.75L30.38-3.75L28.59-4.13Q26.77-4.64 26.77-6.19L26.77-6.19Q26.91-8.72 29.77-8.81L29.77-8.81Q33-8.81 33.09-6.09ZM40.45-3.19L40.45-8.58L41.63-8.58L41.63-3.05Q41.48 0.05 38.11 0.14L38.11 0.14Q34.97 0.05 34.83-2.86L34.83-2.86L34.83-8.58L36-8.58L36-3.19Q36.05-0.84 38.16-0.80L38.16-0.80Q40.45-0.84 40.45-3.19L40.45-3.19ZM46.03-1.92L46.03-2.77L47.11-2.77L47.11-2.16Q47.11-0.75 48.42-0.75L48.42-0.75Q49.78-0.75 49.78-2.25L49.78-2.25L49.78-8.58L50.95-8.58L50.95-2.30Q50.91 0.09 48.47 0.14L48.47 0.14Q46.17 0.09 46.03-1.92L46.03-1.92ZM52.92-8.58L54.09-8.58L54.09 0L52.92 0L52.92-8.58ZM61.73 0L60.89-2.48L57.42-2.48L56.53 0L55.36 0L58.59-8.58L59.91-8.58L63 0L61.73 0ZM59.16-7.31L57.80-3.52L60.47-3.52L59.20-7.31L59.16-7.31ZM68.81-7.13L68.77-7.13L66.80 0L65.58 0L63.33-8.58L64.55-8.58L66.19-1.59L66.23-1.59L68.16-8.58L69.42-8.58L71.34-1.59L71.39-1.59L72.98-8.58L74.25-8.58L72 0L70.78 0L68.81-7.13ZM76.64-1.03L81.80-1.03L81.80 0L75.47 0L75.47-8.58L81.70-8.58L81.70-7.59L76.64-7.59L76.64-4.92L81.33-4.92L81.33-3.89L76.64-3.89L76.64-1.03ZM84.70-8.58L89.02-1.64L89.02-8.58L90.14-8.58L90.14 0L88.83 0L84.47-6.94L84.42-6.94L84.42 0L83.30 0L83.30-8.58L84.70-8.58Z" transform="translate(-0.5609879032258065, 8.8125)"></path></g></g></g></g></g><defs v-gra="od"></defs></svg>